<?xml version="1.0" standalone="no"?>
<!DOCTYPE svg PUBLIC "-//W3C//DTD SVG 20010904//EN"
 "http://www.w3.org/TR/2001/REC-SVG-20010904/DTD/svg10.dtd">
<svg version="1.0" xmlns="http://www.w3.org/2000/svg"
 width="360.000000pt" height="86.000000pt" viewBox="0 0 360.000000 86.000000"
 preserveAspectRatio="xMidYMid meet">
<metadata>
Created by potrace 1.16, written by Peter Selinger 2001-2019
</metadata>
<g transform="translate(0.000000,86.000000) scale(0.100000,-0.100000)"
fill="#000000" stroke="none">
<path d="M960 455 l0 -195 174 0 c185 0 214 5 258 47 53 50 45 125 -16 158
l-32 17 28 28 c34 35 35 50 3 88 -35 41 -88 52 -264 52 l-151 0 0 -195z m358
126 c26 -14 29 -43 5 -62 -12 -11 -53 -14 -162 -14 l-146 0 -1 40 c0 22 1 44
4 49 7 13 273 2 300 -13z m30 -151 c40 -24 42 -57 6 -91 -24 -23 -33 -24 -180
-28 l-154 -3 0 71 0 71 148 0 c129 0 151 -3 180 -20z"/>
<path d="M2685 639 c-56 -13 -85 -44 -85 -89 0 -74 68 -100 260 -100 78 0 101
-4 128 -20 28 -17 33 -25 30 -53 -5 -56 -43 -67 -244 -67 -94 0 -173 -3 -176
-6 -3 -3 -4 -14 -1 -25 5 -18 15 -19 182 -19 153 0 182 3 219 20 75 34 91 118
33 174 -39 37 -79 46 -207 46 -157 0 -213 25 -164 74 19 19 36 21 193 26 164
5 172 6 172 25 0 19 -7 20 -150 22 -82 1 -168 -3 -190 -8z"/>
<path d="M3437 643 c-4 -3 -7 -91 -7 -195 l0 -188 35 0 35 0 0 195 0 195 -28
0 c-16 0 -32 -3 -35 -7z"/>
<path d="M257 523 c-46 -65 -107 -151 -135 -190 l-52 -73 30 0 c27 0 40 14
136 150 59 83 109 148 113 145 3 -4 51 -70 106 -148 92 -128 104 -142 134
-145 l33 -3 -40 53 c-21 29 -83 115 -136 191 -54 75 -99 137 -101 137 -3 0
-42 -53 -88 -117z"/>
<path d="M1900 483 c-62 -87 -124 -173 -137 -191 l-24 -32 30 0 c27 0 40 14
138 151 97 137 108 150 120 133 7 -11 54 -77 105 -149 76 -106 98 -131 121
-133 15 -2 27 -1 27 3 0 5 -243 350 -260 368 -4 5 -58 -63 -120 -150z"/>
</g>
</svg>
